<?xml version="1.0" encoding="UTF-8" standalone="no"?> <svg xmlns="http://www.w3.org/2000/svg" viewBox="0 0 48 48"><title>Language</title><g id="_31_-_40" data-name="31 - 40"><g id="Language"><path d="M41,17H23a5.006,5.006,0,0,0-5,5V34a5.006,5.006,0,0,0,5,5H33.086l4.353,4.354A1.5,1.5,0,0,0,40,42.293V39h1a5.006,5.006,0,0,0,5-5V22A5.006,5.006,0,0,0,41,17Zm-4,9.5h-.559a8.973,8.973,0,0,1-2.661,5.434,6.949,6.949,0,0,0,2.72.566,1.031,1.031,0,0,1,1.036,1,.97.97,0,0,1-.965,1,9.127,9.127,0,0,1-4.551-1.23A8.932,8.932,0,0,1,27.5,34.5a1.031,1.031,0,0,1-1.036-1,.97.97,0,0,1,.965-1,7.128,7.128,0,0,0,2.811-.574,8.855,8.855,0,0,1-1.875-2.573,1,1,0,1,1,1.806-.857,6.974,6.974,0,0,0,1.823,2.352A6.96,6.96,0,0,0,34.42,26.5H27a1,1,0,0,1,0-2h4v-2a1,1,0,0,1,2,0v2h4a1,1,0,0,1,0,2Z"/><path d="M16,14.417,14.371,18h2.893c.072-.1.149-.2.227-.3Z"/><path d="M25,6H7a5.006,5.006,0,0,0-5,5V23a5.006,5.006,0,0,0,5,5H8v3.293a1.5,1.5,0,0,0,2.561,1.061L14.914,28H16V22a6.956,6.956,0,0,1,.3-2H13.462L11.91,23.414a1,1,0,0,1-1.82-.828l5-11a1,1,0,0,1,1.82,0l2.117,4.657h0A6.952,6.952,0,0,1,23,15h7V11A5.006,5.006,0,0,0,25,6Z"/></g></g></svg>