<svg width="24" height="24" viewBox="0 0 24 24" fill="none" xmlns="http://www.w3.org/2000/svg">
<path fill-rule="evenodd" clip-rule="evenodd" d="M10.1724 4.14988C10.8762 2.56624 13.1238 2.56626 13.8276 4.14988L15.3346 7.54057C15.8669 8.73828 17.3881 9.1088 18.4116 8.29003L20.7094 6.45182C22.1722 5.28159 24.2968 6.58433 23.9173 8.41877L21.8092 18.6078C21.521 20.0008 20.294 20.9999 18.8714 20.9999H5.12856C3.70599 20.9999 2.47901 20.0008 2.19078 18.6078L0.0827157 8.41877C-0.296822 6.58433 1.82784 5.28159 3.29063 6.45182L5.58839 8.29003C6.61186 9.1088 8.13309 8.73828 8.6654 7.54057L10.1724 4.14988ZM12 4.96216L10.493 8.35285C9.42839 10.7483 6.38594 11.4893 4.339 9.85177L2.04124 8.01356L4.1493 18.2025C4.24538 18.6669 4.65437 18.9999 5.12856 18.9999H18.8714C19.3456 18.9999 19.7546 18.6669 19.8507 18.2025L21.9588 8.01356L19.661 9.85177C17.6141 11.4893 14.5716 10.7483 13.507 8.35285L12 4.96216Z" fill="#2b2b2b" id="id_101"></path>
</svg>